<?xml version="1.0" encoding="UTF-8" standalone="no"?>
<!DOCTYPE svg PUBLIC "-//W3C//DTD SVG 1.1//EN"
 "http://www.w3.org/Graphics/SVG/1.1/DTD/svg11.dtd">
<!-- Generated by graphviz version 2.50.0 (20211204.2007)
 -->
<!-- Title: result Pages: 1 -->
<svg width="437pt" height="340pt"
 viewBox="0.00 0.00 436.78 340.00" xmlns="http://www.w3.org/2000/svg" xmlns:xlink="http://www.w3.org/1999/xlink">
<g id="graph0" class="graph" transform="scale(1 1) rotate(0) translate(4 336)">
<title>result</title>
<polygon fill="white" stroke="transparent" points="-4,4 -4,-336 432.78,-336 432.78,4 -4,4"/>
<!-- sequences/2 -->
<g id="node1" class="node">
<title>sequences/2</title>
<polygon fill="#bfbfbf" stroke="black" points="327.28,-255 281.28,-255 281.28,-219 327.28,-219 327.28,-255"/>
<text text-anchor="middle" x="304.28" y="-233.3" font-family="Times New Roman,serif" font-size="14.00">seq:2</text>
</g>
<!-- sequences/3 -->
<g id="node2" class="node">
<title>sequences/3</title>
<polygon fill="#bfbfbf" stroke="black" points="422.28,-255 376.28,-255 376.28,-219 422.28,-219 422.28,-255"/>
<text text-anchor="middle" x="399.28" y="-233.3" font-family="Times New Roman,serif" font-size="14.00">seq:3</text>
</g>
<!-- sequences/2&#45;&gt;sequences/3 -->
<g id="edge1" class="edge">
<title>sequences/2&#45;&gt;sequences/3</title>
<path fill="none" stroke="black" d="M327.32,-219.48C338.93,-216.62 353.39,-216.01 366.22,-217.64"/>
<polygon fill="black" stroke="black" points="365.61,-221.09 376.08,-219.44 366.87,-214.2 365.61,-221.09"/>
</g>
<!-- sequences/2&#45;&gt;sequences/3 -->
<g id="edge5" class="edge">
<title>sequences/2&#45;&gt;sequences/3</title>
<path fill="none" stroke="black" d="M327.32,-254.52C338.93,-257.38 353.39,-257.99 366.22,-256.36"/>
<polygon fill="black" stroke="black" points="366.87,-259.8 376.08,-254.56 365.61,-252.91 366.87,-259.8"/>
</g>
<!-- sequences/3&#45;&gt;sequences/2 -->
<g id="edge2" class="edge">
<title>sequences/3&#45;&gt;sequences/2</title>
<path fill="none" stroke="black" d="M376.08,-231.15C364.55,-230.21 350.26,-230.01 337.54,-230.54"/>
<polygon fill="black" stroke="black" points="337.09,-227.06 327.32,-231.16 337.52,-234.05 337.09,-227.06"/>
</g>
<!-- sequences/3&#45;&gt;sequences/2 -->
<g id="edge3" class="edge">
<title>sequences/3&#45;&gt;sequences/2</title>
<path fill="none" stroke="black" d="M376.08,-242.85C364.55,-243.79 350.26,-243.99 337.54,-243.46"/>
<polygon fill="black" stroke="black" points="337.52,-239.95 327.32,-242.84 337.09,-246.94 337.52,-239.95"/>
</g>
<!-- sequences/124 -->
<g id="node3" class="node">
<title>sequences/124</title>
<polygon fill="#bfbfbf" stroke="black" points="333.78,-163 274.78,-163 274.78,-127 333.78,-127 333.78,-163"/>
<text text-anchor="middle" x="304.28" y="-141.3" font-family="Times New Roman,serif" font-size="14.00">seq:124</text>
</g>
<!-- sequences/124&#45;&gt;sequences/3 -->
<g id="edge4" class="edge">
<title>sequences/124&#45;&gt;sequences/3</title>
<path fill="none" stroke="black" d="M329.72,-163.15C344.75,-176.95 363.78,-195.89 377.98,-211.23"/>
<polygon fill="black" stroke="black" points="375.61,-213.82 384.92,-218.88 380.79,-209.12 375.61,-213.82"/>
</g>
<!-- sequences/124&#45;&gt;sequences/3 -->
<g id="edge12" class="edge">
<title>sequences/124&#45;&gt;sequences/3</title>
<path fill="none" stroke="black" d="M318.61,-163.08C331.59,-177.73 351.76,-198.17 368.56,-213.94"/>
<polygon fill="black" stroke="black" points="366.28,-216.6 376,-220.82 371.04,-211.46 366.28,-216.6"/>
</g>
<!-- sequences/10 -->
<g id="node4" class="node">
<title>sequences/10</title>
<polygon fill="#bfbfbf" stroke="black" points="330.78,-309 277.78,-309 277.78,-273 330.78,-273 330.78,-309"/>
<text text-anchor="middle" x="304.28" y="-287.3" font-family="Times New Roman,serif" font-size="14.00">seq:10</text>
</g>
<!-- sequences/291 -->
<g id="node5" class="node">
<title>sequences/291</title>
<polygon fill="#bfbfbf" stroke="black" points="218.89,-309 159.89,-309 159.89,-273 218.89,-273 218.89,-309"/>
<text text-anchor="middle" x="189.39" y="-287.3" font-family="Times New Roman,serif" font-size="14.00">seq:291</text>
</g>
<!-- sequences/291&#45;&gt;sequences/10 -->
<g id="edge6" class="edge">
<title>sequences/291&#45;&gt;sequences/10</title>
<path fill="none" stroke="black" d="M219.17,-285.03C233.82,-284.13 251.77,-284.01 267.32,-284.66"/>
<polygon fill="black" stroke="black" points="267.46,-288.17 277.64,-285.24 267.85,-281.19 267.46,-288.17"/>
</g>
<!-- sequences/291&#45;&gt;sequences/10 -->
<g id="edge14" class="edge">
<title>sequences/291&#45;&gt;sequences/10</title>
<path fill="none" stroke="black" d="M219.17,-296.97C233.82,-297.87 251.77,-297.99 267.32,-297.34"/>
<polygon fill="black" stroke="black" points="267.85,-300.81 277.64,-296.76 267.46,-293.83 267.85,-300.81"/>
</g>
<!-- sequences/37 -->
<g id="node6" class="node">
<title>sequences/37</title>
<polygon fill="#bfbfbf" stroke="black" points="215.89,-90 162.89,-90 162.89,-54 215.89,-54 215.89,-90"/>
<text text-anchor="middle" x="189.39" y="-68.3" font-family="Times New Roman,serif" font-size="14.00">seq:37</text>
</g>
<!-- sequences/98 -->
<g id="node7" class="node">
<title>sequences/98</title>
<polygon fill="#bfbfbf" stroke="black" points="330.78,-71 277.78,-71 277.78,-35 330.78,-35 330.78,-71"/>
<text text-anchor="middle" x="304.28" y="-49.3" font-family="Times New Roman,serif" font-size="14.00">seq:98</text>
</g>
<!-- sequences/37&#45;&gt;sequences/98 -->
<g id="edge7" class="edge">
<title>sequences/37&#45;&gt;sequences/98</title>
<path fill="none" stroke="black" d="M216,-61.93C231.3,-58.26 250.96,-54.76 267.75,-52.66"/>
<polygon fill="black" stroke="black" points="268.22,-56.13 277.77,-51.54 267.44,-49.17 268.22,-56.13"/>
</g>
<!-- sequences/37&#45;&gt;sequences/98 -->
<g id="edge10" class="edge">
<title>sequences/37&#45;&gt;sequences/98</title>
<path fill="none" stroke="black" d="M216,-73.45C231.3,-71.97 250.96,-68.85 267.75,-65.3"/>
<polygon fill="black" stroke="black" points="268.78,-68.66 277.77,-63.05 267.24,-61.83 268.78,-68.66"/>
</g>
<!-- sequences/101 -->
<g id="node8" class="node">
<title>sequences/101</title>
<polygon fill="#bfbfbf" stroke="black" points="428.78,-71 369.78,-71 369.78,-35 428.78,-35 428.78,-71"/>
<text text-anchor="middle" x="399.28" y="-49.3" font-family="Times New Roman,serif" font-size="14.00">seq:101</text>
</g>
<!-- sequences/98&#45;&gt;sequences/101 -->
<g id="edge8" class="edge">
<title>sequences/98&#45;&gt;sequences/101</title>
<path fill="none" stroke="black" d="M331.19,-46.88C339.95,-46.31 349.93,-46.13 359.48,-46.33"/>
<polygon fill="black" stroke="black" points="359.45,-49.83 369.57,-46.71 359.71,-42.84 359.45,-49.83"/>
</g>
<!-- sequences/98&#45;&gt;sequences/101 -->
<g id="edge11" class="edge">
<title>sequences/98&#45;&gt;sequences/101</title>
<path fill="none" stroke="black" d="M331.19,-59.12C339.95,-59.69 349.93,-59.87 359.48,-59.67"/>
<polygon fill="black" stroke="black" points="359.71,-63.16 369.57,-59.29 359.45,-56.17 359.71,-63.16"/>
</g>
<!-- sequences/133 -->
<g id="node9" class="node">
<title>sequences/133</title>
<polygon fill="#bfbfbf" stroke="black" points="218.89,-36 159.89,-36 159.89,0 218.89,0 218.89,-36"/>
<text text-anchor="middle" x="189.39" y="-14.3" font-family="Times New Roman,serif" font-size="14.00">seq:133</text>
</g>
<!-- sequences/133&#45;&gt;sequences/98 -->
<g id="edge9" class="edge">
<title>sequences/133&#45;&gt;sequences/98</title>
<path fill="none" stroke="black" d="M219.17,-20.95C234.1,-24.67 252.46,-30.25 268.22,-35.83"/>
<polygon fill="black" stroke="black" points="267.04,-39.13 277.64,-39.29 269.45,-32.55 267.04,-39.13"/>
</g>
<!-- sequences/133&#45;&gt;sequences/98 -->
<g id="edge13" class="edge">
<title>sequences/133&#45;&gt;sequences/98</title>
<path fill="none" stroke="black" d="M219.17,-32.89C233.96,-38.38 252.12,-44.13 267.77,-48.31"/>
<polygon fill="black" stroke="black" points="267.08,-51.75 277.64,-50.81 268.8,-44.96 267.08,-51.75"/>
</g>
<!-- amyloids/Amyloid_beta -->
<g id="node10" class="node">
<title>amyloids/Amyloid_beta</title>
<ellipse fill="aqua" stroke="black" cx="189.39" cy="-145" rx="49.29" ry="18"/>
<text text-anchor="middle" x="189.39" y="-141.3" font-family="Times New Roman,serif" font-size="14.00">Amyloid β</text>
</g>
<!-- amyloids/Amyloid_beta&#45;&gt;sequences/2 -->
<g id="edge16" class="edge">
<title>amyloids/Amyloid_beta&#45;&gt;sequences/2</title>
<path fill="none" stroke="black" d="M210.57,-161.45C227.96,-175.62 253.32,-196.28 273.12,-212.42"/>
<polygon fill="black" stroke="black" points="270.99,-215.2 280.95,-218.8 275.41,-209.77 270.99,-215.2"/>
</g>
<!-- amyloids/Amyloid_beta&#45;&gt;sequences/3 -->
<g id="edge15" class="edge">
<title>amyloids/Amyloid_beta&#45;&gt;sequences/3</title>
<path fill="none" stroke="black" d="M221.51,-158.77C260.67,-176.1 327.54,-205.69 366.84,-223.09"/>
<polygon fill="black" stroke="black" points="365.65,-226.39 376.21,-227.23 368.48,-219.98 365.65,-226.39"/>
</g>
<!-- amyloids/Amyloid_beta&#45;&gt;sequences/124 -->
<g id="edge17" class="edge">
<title>amyloids/Amyloid_beta&#45;&gt;sequences/124</title>
<path fill="none" stroke="black" d="M238.92,-145C247.49,-145 256.31,-145 264.57,-145"/>
<polygon fill="black" stroke="black" points="264.67,-148.5 274.67,-145 264.67,-141.5 264.67,-148.5"/>
</g>
<!-- amyloids/Amyloid_beta&#45;&gt;sequences/98 -->
<g id="edge19" class="edge">
<title>amyloids/Amyloid_beta&#45;&gt;sequences/98</title>
<path fill="none" stroke="black" d="M210.57,-128.55C227.96,-114.38 253.32,-93.72 273.12,-77.58"/>
<polygon fill="black" stroke="black" points="275.41,-80.23 280.95,-71.2 270.99,-74.8 275.41,-80.23"/>
</g>
<!-- amyloids/Amyloid_beta&#45;&gt;sequences/101 -->
<g id="edge20" class="edge">
<title>amyloids/Amyloid_beta&#45;&gt;sequences/101</title>
<path fill="none" stroke="black" d="M221.51,-131.23C258.55,-114.83 320.4,-87.47 360.24,-69.83"/>
<polygon fill="black" stroke="black" points="361.9,-72.93 369.63,-65.68 359.06,-66.53 361.9,-72.93"/>
</g>
<!-- amyloids/alpha&#45;synuclein -->
<g id="node11" class="node">
<title>amyloids/alpha&#45;synuclein</title>
<ellipse fill="aqua" stroke="black" cx="52" cy="-314" rx="51.99" ry="18"/>
<text text-anchor="middle" x="52" y="-310.3" font-family="Times New Roman,serif" font-size="14.00">α&#45;synuclein</text>
</g>
<!-- amyloids/alpha&#45;synuclein&#45;&gt;sequences/10 -->
<g id="edge23" class="edge">
<title>amyloids/alpha&#45;synuclein&#45;&gt;sequences/10</title>
<path fill="none" stroke="black" d="M100.46,-320.68C138.3,-324.65 192.44,-327.31 238.78,-318 248.68,-316.01 258.94,-312.47 268.3,-308.59"/>
<polygon fill="black" stroke="black" points="269.92,-311.7 277.67,-304.48 267.11,-305.29 269.92,-311.7"/>
</g>
<!-- amyloids/alpha&#45;synuclein&#45;&gt;sequences/291 -->
<g id="edge18" class="edge">
<title>amyloids/alpha&#45;synuclein&#45;&gt;sequences/291</title>
<path fill="none" stroke="black" d="M99.21,-306.15C115.67,-303.35 134.03,-300.23 149.79,-297.56"/>
<polygon fill="black" stroke="black" points="150.45,-301 159.72,-295.87 149.28,-294.09 150.45,-301"/>
</g>
<!-- amyloids/Tau -->
<g id="node12" class="node">
<title>amyloids/Tau</title>
<ellipse fill="aqua" stroke="black" cx="52" cy="-18" rx="24.9" ry="18"/>
<text text-anchor="middle" x="52" y="-14.3" font-family="Times New Roman,serif" font-size="14.00">Tau</text>
</g>
<!-- amyloids/Tau&#45;&gt;sequences/133 -->
<g id="edge21" class="edge">
<title>amyloids/Tau&#45;&gt;sequences/133</title>
<path fill="none" stroke="black" d="M76.89,-18C96.9,-18 125.87,-18 149.26,-18"/>
<polygon fill="black" stroke="black" points="149.56,-21.5 159.56,-18 149.56,-14.5 149.56,-21.5"/>
</g>
<!-- amyloids/Lysozyme -->
<g id="node13" class="node">
<title>amyloids/Lysozyme</title>
<ellipse fill="aqua" stroke="black" cx="52" cy="-72" rx="48.19" ry="18"/>
<text text-anchor="middle" x="52" y="-68.3" font-family="Times New Roman,serif" font-size="14.00">Lysozyme</text>
</g>
<!-- amyloids/Lysozyme&#45;&gt;sequences/37 -->
<g id="edge22" class="edge">
<title>amyloids/Lysozyme&#45;&gt;sequences/37</title>
<path fill="none" stroke="black" d="M100.35,-72C117.49,-72 136.55,-72 152.53,-72"/>
<polygon fill="black" stroke="black" points="152.55,-75.5 162.55,-72 152.55,-68.5 152.55,-75.5"/>
</g>
</g>
</svg>
